<svg width="800" height="600" xmlns="http://www.w3.org/2000/svg">
  <!-- Background -->
  <rect x="0" y="0" width="800" height="600" fill="#0d0d0d"/>
  
  <!-- Gradient overlay -->
  <defs>
    <linearGradient id="neonGlow" x1="0%" y1="0%" x2="0%" y2="100%">
      <stop offset="0%" style="stop-color:#00ff41;stop-opacity:0.15"/>
      <stop offset="100%" style="stop-color:#00ff41;stop-opacity:0"/>
    </linearGradient>
    <filter id="glow">
      <feGaussianBlur stdDeviation="3" result="coloredBlur"/>
      <feMerge>
        <feMergeNode in="coloredBlur"/>
        <feMergeNode in="SourceGraphic"/>
      </feMerge>
    </filter>
  </defs>
  
  <!-- Header -->
  <text x="50" y="50" font-family="Arial, sans-serif" font-size="28" fill="#ffffff" font-weight="bold">Q3 REVENUE vs RISK ANALYSIS</text>
  <text x="50" y="75" font-family="Courier New, monospace" font-size="13" fill="#00ff41">SOURCE: GRAPHON LOGISTICS AUDIT · PROJECT 12</text>
  <line x1="50" y1="85" x2="750" y2="85" stroke="#333333" stroke-width="1"/>
  
  <!-- Revenue Card -->
  <rect x="50" y="120" width="320" height="240" rx="12" fill="#1a1a1a" stroke="#00ff41" stroke-width="2"/>
  <text x="70" y="155" font-family="Arial, sans-serif" font-size="14" fill="#888888" text-transform="uppercase">Revenue (Projected)</text>
  <text x="70" y="210" font-family="Arial, sans-serif" font-size="56" fill="#ffffff" font-weight="bold">$12.5M</text>
  <text x="70" y="240" font-family="Courier New, monospace" font-size="12" fill="#00ff41">▲ 18% YoY Growth</text>
  
  <!-- Progress bar -->
  <rect x="70" y="270" width="280" height="6" rx="3" fill="#2a2a2a"/>
  <rect x="70" y="270" width="224" rx="3" height="6" fill="#00ff41" filter="url(#glow)"/>
  <text x="70" y="295" font-family="Courier New, monospace" font-size="11" fill="#666666">Target Achievement: 80%</text>
  
  <!-- Timestamp -->
  <text x="70" y="340" font-family="Courier New, monospace" font-size="10" fill="#444444">Last Updated: DEC 13, 2025 18:30 UTC</text>
  
  <!-- Risk Card -->
  <rect x="430" y="120" width="320" height="240" rx="12" fill="#1a1a1a" stroke="#ff3333" stroke-width="2"/>
  <text x="450" y="155" font-family="Arial, sans-serif" font-size="14" fill="#ff3333" text-transform="uppercase">Risk Detected</text>
  <text x="450" y="210" font-family="Arial, sans-serif" font-size="56" fill="#ffffff" font-weight="bold">12%</text>
  <text x="450" y="240" font-family="Courier New, monospace" font-size="12" fill="#ff8888">Logistics Delay</text>
  
  <!-- Risk details -->
  <rect x="450" y="260" width="280" height="50" rx="6" fill="#0a0a0a" stroke="#ff3333" stroke-width="1" opacity="0.5"/>
  <text x="460" y="280" font-family="Courier New, monospace" font-size="11" fill="#ffaaaa">▸ Sector 4: Container Shipment</text>
  <text x="460" y="298" font-family="Courier New, monospace" font-size="11" fill="#ffaaaa">▸ Impact: $50k expedited budget req.</text>
  
  <!-- Action bar -->
  <rect x="50" y="410" width="700" height="130" rx="8" fill="#111111" stroke="#2a2a2a" stroke-width="1"/>
  
  <!-- Command log simulation -->
  <text x="70" y="440" font-family="Courier New, monospace" font-size="12" fill="#00ff41">> [00:03:30] EXEC_01: "Generate visualization for board deck."</text>
  <text x="70" y="465" font-family="Courier New, monospace" font-size="12" fill="#00ff41">> [00:03:35] GRAPHON: "Visual stack compiling. Exporting to design environment."</text>
  <text x="70" y="500" font-family="Courier New, monospace" font-size="13" fill="#ffffff" font-weight="bold">STATUS: EXPORT COMPLETE</text>
  <text x="70" y="520" font-family="Courier New, monospace" font-size="11" fill="#A259FF">✓ Asset synced to Figma [Q3_Board_Audit.fig]</text>
  
  <!-- Watermark -->
  <text x="750" y="590" font-family="Courier New, monospace" font-size="9" fill="#333333" text-anchor="end">SILENT EXECUTIVE · NANO-BANANA PROTOCOL</text>
</svg>
-8 12 -8735 12 -8735 0z"/>
<path d="M62 6103 c-41 -20 -65 -54 -59 -85 4 -21 4 -21 6 4 1 17 8 29 21 33
11 3 20 13 20 21 0 9 11 14 34 14 38 0 55 14 30 24 -19 7 -13 9 -52 -11z"/>
<path d="M8870 6111 c0 -10 24 -21 46 -21 16 0 54 -35 54 -50 0 -5 7 -10 15
-10 10 0 15 10 15 28 0 22 -7 30 -43 45 -46 18 -87 22 -87 8z"/>
<path d="M78 6021 c-10 -10 -18 -29 -18 -44 0 -14 -6 -27 -12 -29 -20 -7 -19
-5909 1 -5916 11 -4 12 458 8 2884 -2 1589 -2 2921 1 2961 4 59 10 78 31 104
l27 32 4389 -2 c3440 -1 4392 -4 4402 -14 9 -9 12 -679 14 -3005 1 -2525 4
-2992 15 -2992 12 0 14 468 14 3005 0 2664 -2 3005 -15 3005 -8 0 -15 7 -15
15 0 13 -497 15 -4412 14 -4212 0 -4414 -1 -4430 -18z"/>
<path d="M2336 5605 c-24 -18 -56 -19 -90 -4 -20 10 -30 8 -56 -11 -26 -18
-38 -21 -68 -15 -20 4 -80 9 -132 11 -80 3 -101 0 -135 -17 -22 -11 -45 -28
-52 -36 -10 -13 -24 -14 -69 -9 -62 7 -91 19 -114 46 -12 15 -35 20 -115 24
-111 7 -402 -10 -452 -25 -26 -8 -41 -6 -77 10 -54 24 -116 28 -173 12 -29 -8
-49 -9 -61 -2 -12 6 -49 6 -108 -1 -49 -6 -117 -11 -151 -13 -34 -1 -70 -8
-78 -15 -37 -31 -76 -101 -81 -147 -5 -41 -2 -54 20 -86 30 -44 32 -56 11 -83
-8 -10 -15 -35 -15 -55 0 -28 8 -43 35 -71 32 -32 43 -36 106 -42 39 -3 76 -3
82 1 7 4 82 8 167 9 85 1 162 3 170 4 8 0 49 -2 90 -5 97 -9 186 -6 217 6 17
6 30 6 39 -2 8 -7 28 -9 51 -5 21 4 52 7 68 8 17 0 33 5 37 11 5 8 13 6 25 -5
11 -10 24 -14 32 -9 7 5 31 6 54 4 106 -11 354 -12 380 -1 21 8 34 8 52 -2 16
-9 42 -10 82 -6 32 4 67 6 78 6 25 -1 358 -1 403 0 30 1 48 20 18 20 -7 0 -16
10 -19 22 l-6 22 -25 -23 c-29 -27 -56 -22 -85 15 -23 30 -33 31 -29 3 2 -13
-5 -26 -15 -33 -15 -9 -21 -7 -38 14 l-20 25 -16 -22 c-19 -28 -49 -30 -63 -3
-6 11 -15 20 -19 20 -5 0 -11 -9 -14 -20 -7 -26 -43 -26 -57 -1 -11 21 -41 19
-61 -5 -18 -21 -83 -18 -104 6 -10 11 -28 20 -41 20 -14 0 -25 -8 -29 -20 -9
-29 -58 -27 -73 3 l-11 22 -7 -22 c-9 -31 -30 -29 -39 4 l-7 28 -20 -28 c-23
-32 -43 -35 -58 -7 -11 21 -38 17 -53 -7 -14 -23 -47 -15 -65 17 -22 38 -32
38 -32 0 0 -19 -5 -30 -14 -30 -19 0 -25 23 -23 85 l2 49 92 1 92 0 3 -30 c3
-31 22 -37 24 -7 2 37 4 42 18 42 8 0 18 -10 22 -22 l6 -21 19 24 c18 23 20
23 33 6 12 -15 14 -16 20 -2 10 27 60 18 84 -15 27 -37 38 -38 46 -5 4 15 16
27 31 31 39 10 55 -2 55 -39 0 -51 12 -53 30 -5 11 30 22 44 37 46 18 3 22 -2
25 -30 3 -34 22 -42 24 -10 2 37 4 42 18 42 8 0 18 -10 22 -22 l6 -21 19 24
c17 23 18 23 24 4 16 -49 18 -50 27 -17 10 36 37 43 45 12 6 -24 23 -27 23 -4
0 12 9 15 38 13 21 -2 44 1 51 6 9 5 19 2 28 -11 13 -18 15 -18 24 -1 15 26
49 22 49 -7 0 -13 7 -29 15 -36 8 -7 15 -25 15 -41 0 -30 14 -39 23 -15 3 8 3
39 0 69 l-5 54 53 5 c30 3 144 5 254 3 177 -1 205 0 246 17 45 19 47 19 105 0
51 -16 84 -18 234 -16 96 2 218 6 270 10 52 3 170 6 262 6 139 1 172 -2 192
-16 32 -20 63 -20 204 1 84 12 118 14 131 6 11 -7 33 -8 62 -3 26 5 72 5 111
-1 37 -6 71 -8 76 -5 11 6 222 20 302 19 36 0 94 -6 130 -12 36 -5 111 -11
166 -12 91 -1 105 1 132 21 37 27 52 60 59 126 6 58 -15 110 -65 157 -27 26
-36 28 -128 32 -193 7 -311 5 -439 -7 -132 -13 -164 -13 -360 -3 -145 8 -165
7 -197 -6 -19 -8 -32 -8 -46 0 -30 16 -76 13 -117 -6 -28 -14 -42 -15 -64 -6
-16 6 -41 8 -54 6 -14 -3 -47 2 -74 11 -26 8 -64 15 -83 15 -469 -2 -682 -10
-709 -24 -39 -20 -53 -19 -98 6 -31 17 -46 20 -92 14 -31 -4 -64 -11 -74 -17
-13 -6 -28 -6 -46 2 -17 7 -88 10 -191 9 -271 -3 -311 -1 -330 16 -20 18 -30
19 -54 0z m1958 -79 c22 -20 26 -32 26 -80 0 -54 1 -57 23 -54 20 3 22 8 22
63 0 53 2 60 20 60 18 0 20 -8 23 -71 3 -69 2 -72 -28 -98 -39 -32 -41 -32
-79 0 -29 24 -31 30 -32 97 l0 72 -19 -40 c-25 -54 -24 -72 5 -124 25 -43 33
-91 15 -91 -5 0 -13 6 -17 13 -4 8 -15 16 -23 19 -8 3 -23 29 -34 57 -20 58
-17 94 14 159 24 49 46 54 84 18z m1174 -3 c22 -24 25 -36 26 -110 0 -77 -2
-86 -26 -110 -16 -16 -32 -23 -42 -20 -20 8 -21 43 0 55 22 12 31 113 12 133
-19 19 -31 56 -23 69 10 17 26 11 53 -17z m-4822 -6 c1 -1 6 -11 12 -22 11
-20 12 -19 18 3 9 30 57 28 62 -3 8 -55 13 -66 30 -63 9 2 21 20 28 43 9 35
15 40 40 40 l29 0 2 -82 c1 -60 -2 -85 -12 -93 -12 -10 -17 -7 -25 15 -5 14
-10 34 -11 43 0 10 -7 3 -15 -15 -19 -43 -58 -46 -72 -5 l-10 27 -1 -25 c-1
-14 -6 -32 -12 -40 -8 -13 -12 -12 -26 8 l-16 23 -28 -27 c-25 -24 -32 -26
-54 -16 -14 6 -25 16 -25 22 0 5 -7 10 -15 10 -8 0 -15 -7 -15 -15 0 -23 -20
-18 -42 10 -26 33 -45 32 -66 -5 -24 -42 -52 -40 -52 4 0 18 7 39 15 46 8 7
15 21 15 31 0 31 34 88 53 89 18 0 34 -29 46 -84 10 -45 31 -45 31 1 0 38 22
76 50 86 12 5 62 0 66 -6z m328 7 c9 -3 16 -14 16 -24 0 -14 -9 -20 -32 -22
-41 -4 -42 -21 -3 -28 37 -6 37 -24 -1 -30 -40 -7 -38 -34 3 -38 36 -4 56 -37
32 -54 -19 -12 -90 -3 -100 14 -5 7 -8 49 -7 93 l3 80 35 6 c19 4 36 7 37 8 1
0 8 -2 17 -5z m199 -21 c11 -18 34 -17 45 3 5 10 23 16 45 17 50 1 84 -34 90
-93 4 -40 4 -39 4 11 0 30 3 61 7 67 11 18 77 14 99 -5 18 -17 19 -17 28 0 8
13 23 17 63 17 47 0 56 -3 71 -26 22 -35 9 -67 -39 -89 -21 -10 -38 -28 -45
-46 -8 -24 -15 -29 -44 -29 -34 0 -58 18 -70 53 -9 24 -27 12 -27 -18 0 -34
-20 -42 -40 -15 -14 19 -20 21 -38 11 -12 -7 -22 -16 -22 -20 0 -5 -10 -11
-21 -14 -15 -4 -30 3 -49 22 l-28 27 -32 -28 c-18 -15 -38 -28 -45 -28 -29 0
-85 71 -85 108 0 32 34 91 54 95 31 6 70 -4 79 -20z m789 -5 c14 -16 17 -37
17 -104 -2 -83 -10 -107 -32 -85 -6 6 -20 11 -31 11 -12 1 -34 12 -51 25 -27
23 -30 30 -29 84 0 33 6 67 13 75 25 30 85 27 113 -6z m140 -2 c21 -25 23 -43
6 -49 -10 -3 -10 -9 0 -26 6 -11 12 -27 12 -34 0 -15 -37 -51 -61 -60 -16 -5
-69 35 -69 54 0 16 29 22 44 10 10 -9 15 -8 20 4 3 9 -1 18 -9 21 -20 8 -19
30 1 38 8 3 12 11 9 17 -5 7 -13 5 -24 -5 -21 -19 -31 -12 -31 21 0 45 68 52
102 9z m160 24 c42 0 64 -63 32 -94 -14 -15 -14 -18 5 -42 l20 -26 3 78 3 78
34 7 c18 4 54 4 80 0 43 -6 46 -8 49 -38 2 -17 10 -34 18 -37 15 -6 18 -1 28
47 l6 27 103 0 c56 0 107 -4 113 -8 6 -4 18 -20 27 -37 16 -31 22 -27 29 20 3
17 11 20 53 20 l50 0 -3 -56 c-2 -40 1 -59 12 -68 25 -21 36 -3 36 64 l0 63
83 4 c80 4 111 -4 104 -26 -2 -6 -20 -13 -41 -16 -45 -6 -48 -23 -6 -30 41 -7
42 -22 3 -32 -18 -5 -33 -13 -33 -18 0 -11 37 -23 49 -15 13 7 34 -32 27 -51
-12 -31 -113 -13 -126 22 l-9 23 -30 -29 c-36 -36 -43 -37 -78 -4 l-27 25 -17
-22 c-20 -27 -46 -20 -55 16 -3 14 -10 25 -14 25 -4 0 -10 10 -14 23 -5 18 -8
19 -16 7 -5 -8 -7 -23 -4 -32 12 -40 -4 -56 -65 -63 -89 -10 -103 1 -99 80 1
35 0 67 -4 70 -6 6 -22 -30 -42 -95 -9 -27 -18 -36 -38 -38 -23 -3 -27 1 -33
30 -4 18 -14 50 -23 71 -15 35 -19 38 -52 35 -41 -4 -47 -22 -7 -26 15 -2 27
-9 27 -17 0 -8 -12 -15 -27 -17 -37 -4 -37 -32 -1 -36 32 -4 52 -26 44 -48 -5
-14 -15 -15 -59 -9 -28 4 -64 7 -78 6 -20 -1 -28 5 -33 21 -3 13 -14 29 -26
36 -17 11 -20 10 -20 -7 0 -29 -11 -51 -25 -51 -19 0 -25 24 -25 105 0 79 13
100 55 90 11 -3 28 -5 37 -5z m1065 -17 c11 -14 14 -14 28 1 26 25 100 22 119
-6 l16 -22 23 22 c38 36 90 34 110 -4 l14 -27 7 27 c9 37 41 32 41 -6 1 -40
12 -45 27 -12 26 59 58 60 58 3 0 -50 23 -49 30 2 l5 34 104 3 c108 3 133 -4
124 -37 -5 -20 18 -34 42 -25 10 4 14 16 13 33 -3 22 1 26 22 26 25 0 25 -1
27 -86 1 -47 -3 -92 -8 -100 -15 -24 -44 3 -47 45 -3 31 -7 36 -28 36 -21 0
-24 -5 -24 -34 0 -38 -24 -66 -42 -48 -6 6 -12 42 -12 79 -1 61 -3 68 -21 68
-18 0 -20 -8 -23 -73 -2 -55 -7 -74 -18 -79 -25 -9 -35 17 -32 87 3 56 1 65
-16 68 -25 5 -36 -14 -36 -63 0 -43 -22 -85 -44 -85 -14 0 -26 30 -26 68 0 31
-17 19 -25 -17 -3 -16 -15 -37 -25 -46 -19 -17 -20 -17 -30 9 -5 15 -10 38
-10 52 0 32 -13 31 -30 -3 -35 -70 -88 -95 -110 -53 -13 24 -30 26 -30 4 0
-30 -44 -11 -62 26 l-17 35 -11 -32 c-12 -34 -36 -43 -57 -22 -9 9 -19 6 -39
-10 -36 -29 -50 -27 -90 13 -41 41 -46 92 -13 134 32 41 89 48 116 15z m1229
-44 c0 -35 1 -71 2 -79 3 -22 52 77 52 105 0 18 7 26 26 31 28 7 44 -7 44 -39
0 -9 4 -25 9 -35 6 -9 13 -30 17 -47 6 -27 7 -28 14 -10 4 11 5 41 3 67 -4 31
-1 53 7 63 22 27 40 -1 40 -65 0 -61 4 -72 26 -63 10 4 14 23 14 68 0 63 9 78
37 68 9 -4 11 -27 6 -86 -5 -66 -10 -85 -27 -99 -26 -22 -45 -22 -67 -2 -14
13 -20 13 -39 2 -19 -12 -24 -10 -49 21 -30 37 -46 35 -62 -6 -8 -21 -14 -24
-46 -21 -34 3 -40 8 -58 45 -27 57 -45 56 -45 -2 0 -33 -4 -45 -15 -45 -17 0
-17 -2 -21 103 -2 63 1 79 13 84 18 7 52 -32 53 -60 0 -11 5 -17 13 -14 6 2
11 17 10 32 -1 16 3 35 9 42 21 26 33 6 34 -58z m362 -25 c2 -62 -1 -84 -12
-93 -26 -22 -33 -4 -30 86 1 48 3 89 3 91 1 2 9 2 19 0 14 -3 17 -16 20 -84z
m481 60 c34 -39 29 -96 -13 -135 -31 -30 -38 -32 -116 -35 -112 -4 -118 0
-122 84 -3 59 -5 67 -23 67 -18 0 -20 -8 -23 -70 -3 -71 -15 -93 -40 -73 -9 8
-13 31 -12 67 2 80 2 81 -20 81 -22 0 -23 -4 -20 -67 1 -24 -1 -52 -5 -63 -7
-22 -30 -27 -41 -8 -9 14 -14 158 -7 171 2 4 98 7 213 6 207 -1 208 -1 229
-25z m-3634 -15 c4 -5 4 -21 1 -35 -6 -21 -12 -25 -39 -22 -28 3 -32 7 -35 36
-3 31 -2 32 32 32 19 0 38 -5 41 -11z m-7 -88 c8 -5 12 -21 10 -37 -3 -26 -7
-29 -40 -32 -37 -3 -38 -2 -38 31 0 18 3 37 7 40 9 10 45 8 61 -2z m-1122
-177 c14 -16 23 -22 21 -13 -11 33 10 43 93 46 70 2 84 -1 102 -19 20 -20 29
-17 41 16 2 5 11 6 21 3 13 -5 16 -14 12 -32 -5 -18 -1 -27 14 -35 11 -6 20
-18 21 -28 0 -10 5 -5 11 11 9 24 7 31 -10 43 -12 8 -19 21 -16 28 4 10 35 13
124 14 114 0 120 -1 134 -24 20 -30 20 -45 -1 -83 l-18 -30 -128 1 c-117 2
-129 4 -139 22 -11 20 -11 20 -28 -2 -22 -26 -48 -28 -65 -5 -11 15 -14 15
-36 0 -26 -19 -114 -23 -124 -7 -3 6 -15 10 -27 10 -11 0 -22 8 -25 20 -8 30
-22 24 -20 -7 2 -26 -1 -28 -43 -31 -32 -2 -48 1 -56 13 -10 14 -12 14 -18 0
-8 -21 -76 -21 -76 0 0 8 -7 15 -15 15 -21 0 -20 68 1 91 14 16 31 18 121 15
102 -2 105 -3 129 -32z m738 16 c13 -10 17 -9 22 4 3 9 12 16 19 16 18 0 48
-49 41 -67 -6 -14 -9 -14 -26 2 -19 18 -20 17 -20 -6 -1 -72 -32 -93 -47 -31
l-10 37 -16 -38 c-15 -36 -19 -38 -54 -35 l-38 3 -3 54 c-2 29 -1 59 2 66 6
17 109 13 130 -5z m96 -101 c0 -14 -7 -19 -25 -19 -26 0 -33 18 -14 37 16 16
39 5 39 -18z"/>
<path d="M587 5472 c-24 -5 -24 -68 1 -81 13 -7 23 -6 31 2 9 9 16 9 30 0 16
-10 20 -9 25 10 3 12 6 25 6 28 0 12 -75 44 -93 41z"/>
<path d="M1107 5473 c-4 -3 -7 -21 -7 -40 0 -40 22 -53 58 -32 37 21 37 34 -1
58 -38 23 -41 24 -50 14z"/>
<path d="M1246 5458 c-20 -28 -20 -37 0 -59 13 -14 21 -16 35 -8 24 13 26 74
3 83 -22 8 -21 9 -38 -16z"/>
<path d="M1400 5467 c0 -22 11 -27 33 -16 16 9 17 13 6 20 -21 13 -39 11 -39
-4z"/>
<path d="M1542 5473 c-18 -7 -4 -23 19 -23 12 0 19 5 17 12 -5 14 -18 18 -36
11z"/>
<path d="M1467 5433 c-13 -12 -7 -43 8 -43 9 0 15 9 15 25 0 24 -10 32 -23 18z"/>
<path d="M1886 5446 c-9 -35 3 -58 28 -54 17 2 21 10 21 38 0 28 -4 36 -21 38
-16 2 -23 -4 -28 -22z"/>
<path d="M2220 5465 c0 -11 7 -15 23 -13 12 2 22 8 22 13 0 6 -10 11 -22 13
-16 2 -23 -2 -23 -13z"/>
<path d="M2637 5474 c-11 -12 3 -24 29 -24 15 0 24 -6 24 -15 0 -9 -9 -15 -23
-15 -13 0 -27 -3 -30 -6 -10 -10 13 -45 24 -38 5 3 17 0 25 -7 21 -17 28 -5
29 54 l0 52 -35 3 c-20 2 -39 0 -43 -4z"/>
<path d="M3257 5462 c-22 -25 -21 -49 2 -62 17 -8 20 -6 23 13 2 18 8 22 36
19 17 -1 32 2 32 8 0 5 -7 10 -15 10 -9 0 -26 7 -39 15 -21 14 -24 13 -39 -3z"/>
<path d="M3406 5471 c-7 -11 18 -33 27 -24 4 3 7 12 7 20 0 15 -26 18 -34 4z"/>
<path d="M3546 5464 c-26 -26 -19 -64 16 -77 23 -8 44 43 28 72 -13 25 -23 26
-44 5z"/>
<path d="M3475 5427 c-4 -10 -3 -28 3 -40 9 -20 10 -21 17 -4 4 10 3 28 -3 40
-9 20 -10 21 -17 4z"/>
<path d="M5202 5471 c-11 -7 -10 -10 3 -15 32 -12 75 -7 75 9 0 17 -55 21 -78
6z"/>
<path d="M5337 5473 c-4 -3 -7 -23 -7 -43 0 -20 3 -40 7 -43 10 -10 43 23 43
43 0 20 -33 53 -43 43z"/>
<path d="M5210 5410 c-22 -14 1 -32 36 -28 40 4 47 38 7 38 -15 0 -35 -5 -43
-10z"/>
<path d="M726 5190 c-20 -21 -14 -40 14 -40 24 0 31 11 23 38 -6 26 -12 27
-37 2z"/>
<path d="M420 5179 c0 -18 2 -19 15 -9 15 12 12 30 -6 30 -5 0 -9 -10 -9 -21z"/>
<path d="M535 5180 c-8 -13 4 -32 16 -25 12 8 12 35 0 35 -6 0 -13 -4 -16 -10z"/>
<path d="M835 5177 c-4 -10 -5 -21 -1 -24 10 -10 18 4 13 24 -4 17 -4 17 -12
0z"/>
<path d="M1072 5168 c6 -18 28 -21 28 -4 0 9 -7 16 -16 16 -9 0 -14 -5 -12
-12z"/>
<path d="M1285 5171 c-6 -11 9 -23 19 -14 9 9 7 23 -3 23 -6 0 -12 -4 -16 -9z"/>
<path d="M1820 5179 c0 -25 33 -22 38 4 2 12 -3 17 -17 17 -15 0 -21 -6 -21
-21z"/>
<path d="M7117 4619 c-34 -18 -41 -18 -80 -5 -57 19 -146 5 -201 -32 -34 -23
-42 -34 -44 -66 -2 -21 4 -58 12 -84 9 -25 16 -60 16 -79 0 -22 7 -37 20 -45
14 -9 20 -24 20 -51 0 -21 9 -56 20 -78 l21 -40 -20 -28 c-24 -33 -43 -109
-30 -117 13 -8 11 -40 -4 -52 -10 -8 -11 -30 -6 -84 12 -125 10 -567 -2 -590
-9 -17 -8 -23 5 -30 20 -11 21 -32 1 -48 -10 -8 -13 -21 -9 -33 9 -29 9 -651
0 -666 -5 -7 -1 -20 9 -31 19 -22 14 -50 -10 -50 -19 0 -20 -16 -1 -23 11 -4
13 -64 13 -322 0 -296 -2 -318 -19 -328 -23 -15 -23 -27 1 -27 31 0 44 -24 22
-44 -15 -14 -17 -24 -11 -59 9 -50 5 -550 -4 -594 -6 -24 -14 -32 -39 -38 -18
-4 -184 -9 -371 -11 -285 -3 -342 -1 -360 11 -11 8 -28 15 -36 15 -13 0 -17
14 -20 68 -3 62 -3 83 1 145 1 12 -2 38 -6 58 -5 27 -3 40 11 53 12 13 14 20
5 25 -8 5 -11 51 -9 164 3 142 2 156 -14 161 -27 6 -22 35 7 42 27 7 31 14 14
31 -7 7 -10 70 -9 190 2 98 2 189 2 203 -1 14 -3 75 -5 135 -4 85 -1 114 10
126 12 15 11 17 -12 23 -29 7 -34 36 -7 42 16 5 17 27 16 300 -1 163 -5 318
-8 345 -6 42 -4 50 14 61 27 17 25 26 -7 30 -20 2 -28 9 -28 23 0 14 8 21 28
23 32 4 34 13 7 30 -21 13 -27 47 -10 57 6 4 7 13 2 23 -5 9 -8 91 -7 182 2
220 -9 267 -80 322 -57 46 -65 58 -36 58 33 0 35 20 2 31 -17 6 -31 15 -31 20
0 12 35 29 61 29 21 0 21 1 -6 25 -21 20 -26 32 -21 51 5 17 0 36 -12 57 -14
23 -19 48 -18 87 3 115 -30 145 -164 145 -74 0 -89 -3 -116 -24 -40 -29 -53
-58 -61 -132 -5 -49 -9 -59 -24 -59 -22 0 -23 9 -7 45 10 21 9 29 -5 42 -13
13 -20 15 -29 5 -24 -24 -45 -14 -51 25 -9 55 -51 93 -102 93 -50 0 -100 -23
-122 -56 -9 -14 -31 -31 -48 -39 -35 -14 -54 -50 -36 -68 16 -16 13 -47 -5
-54 -8 -3 -20 -1 -27 6 -15 15 -27 14 -27 -4 0 -8 5 -15 10 -15 7 0 8 -23 4
-65 -7 -62 -6 -65 20 -76 28 -13 33 -24 15 -34 -6 -4 -8 -13 -5 -21 3 -8 -19
-36 -52 -68 -56 -53 -58 -58 -71 -131 -10 -53 -12 -112 -8 -190 4 -62 4 -147
1 -188 -6 -69 -9 -76 -30 -81 -31 -8 -31 -26 0 -26 31 0 50 -22 34 -38 -7 -7
-18 -12 -25 -12 -7 0 -13 -7 -13 -15 0 -8 7 -15 16 -15 14 0 14 -3 4 -15 -8
-10 -9 -19 -3 -27 6 -8 10 -119 10 -274 1 -144 4 -275 7 -292 6 -25 2 -35 -20
-55 l-26 -25 28 -13 c38 -19 41 -36 9 -51 -26 -12 -26 -12 -5 -20 16 -6 20
-13 15 -28 -4 -11 -8 -151 -9 -310 -2 -256 -4 -291 -19 -308 -23 -25 -22 -29
13 -36 32 -6 41 -33 15 -41 -49 -16 -48 -13 -26 -42 21 -25 21 -37 20 -272 0
-135 -5 -251 -10 -257 -5 -6 -4 -23 3 -41 9 -25 9 -35 -2 -48 -31 -37 -67 -41
-395 -43 -270 -1 -328 1 -372 15 l-53 16 2 41 c1 22 -2 149 -6 281 -4 145 -3
260 3 290 8 41 7 51 -7 61 -22 16 -8 44 23 44 14 0 25 5 25 10 0 6 -9 10 -19
10 -11 0 -22 8 -24 18 -3 9 -4 155 -3 323 1 240 4 310 15 323 11 14 11 16 -2
16 -8 0 -21 7 -28 16 -11 14 -11 18 1 28 13 9 15 66 15 371 0 342 -1 361 -19
376 -21 17 -15 39 10 39 9 0 -12 23 -45 51 -34 28 -61 55 -61 60 0 5 -7 9 -15
9 -9 0 -15 10 -16 28 -1 26 -3 52 -12 192 -7 103 -22 151 -56 182 -52 46 -128
33 -196 -34 -34 -33 -45 -39 -71 -35 -18 3 -36 1 -42 -5 -7 -7 -15 -1 -25 18
-38 72 -141 129 -188 103 -10 -5 -28 -9 -40 -9 -14 0 -41 -19 -72 -51 -48 -49
-49 -53 -45 -99 3 -28 14 -59 27 -76 21 -27 21 -28 3 -48 -25 -27 -42 -79 -42
-127 0 -32 -6 -43 -41 -71 -100 -81 -93 -72 -78 -97 12 -19 12 -24 -3 -35 -16
-12 -18 -45 -19 -370 -1 -319 0 -358 15 -375 15 -17 15 -19 -1 -32 -17 -13
-18 -32 -13 -254 3 -132 3 -287 0 -345 -5 -95 -4 -107 13 -121 19 -16 19 -16
-3 -32 -21 -14 -22 -21 -17 -74 6 -51 8 -350 3 -531 l-1 -63 -52 -18 c-45 -15
-94 -18 -360 -19 -294 -1 -374 5 -388 29 -4 5 -8 38 -9 72 -2 34 -4 67 -6 72
-2 6 0 29 4 53 5 29 4 47 -4 57 -9 10 -9 23 -2 47 6 18 10 102 10 185 0 84 3
157 7 162 3 6 -4 15 -15 21 -28 15 -25 39 5 50 25 9 25 11 10 34 -13 19 -16
49 -15 138 1 62 -1 149 -5 193 -7 79 -8 81 -56 130 -45 47 -48 53 -40 82 5 17
5 35 1 39 -11 13 -19 114 -9 120 16 9 10 42 -10 56 -10 7 -21 29 -23 48 -10
63 -43 134 -68 148 -15 8 -48 11 -83 9 -51 -3 -62 -8 -97 -42 -26 -26 -42 -52
-50 -84 -14 -61 -53 -111 -71 -93 -10 9 -10 15 -1 24 27 27 1 78 -39 78 -19 0
-19 -1 -5 -16 23 -22 20 -61 -5 -75 -30 -15 -41 4 -33 59 6 39 2 49 -31 97
-41 60 -52 64 -182 57 -62 -4 -63 -4 -103 -54 -22 -28 -43 -62 -46 -74 -8 -31
26 -115 49 -122 26 -7 20 -31 -12 -50 -29 -16 -39 -47 -43 -134 0 -16 -8 -30
-17 -33 -24 -8 -68 -76 -76 -118 -4 -20 -11 -39 -15 -42 -8 -5 -4 -267 5 -296
4 -11 -2 -26 -14 -38 -27 -27 -26 -29 4 -41 31 -12 33 -45 3 -53 -18 -5 -19
-8 -9 -21 9 -11 12 -52 11 -138 -1 -68 -1 -132 -1 -143 1 -11 0 -95 -2 -187
l-2 -168 -36 -19 c-33 -18 -58 -20 -274 -20 -153 0 -241 -3 -248 -10 -6 -6 -9
-13 -6 -15 2 -3 148 -6 324 -7 l320 -2 0 605 c0 520 2 607 15 627 l15 22 429
-1 c423 0 430 -1 444 -21 12 -18 15 -115 16 -625 l1 -605 480 0 480 0 3 1149
c2 1123 3 1149 21 1167 18 16 52 17 436 16 352 0 418 -3 431 -15 12 -13 15
-169 17 -1166 l2 -1151 490 0 490 0 3 1429 c2 1289 4 1431 18 1443 21 17 830
17 863 0 l21 -12 2 -1430 3 -1430 490 0 490 0 3 1567 c2 1441 3 1569 19 1586
15 17 42 18 435 18 350 0 422 -2 434 -14 12 -12 14 -241 16 -1586 l3 -1572
280 1 c248 2 331 9 284 25 -8 3 -102 7 -209 10 -107 2 -213 8 -235 13 -39 8
-40 9 -42 53 -1 25 0 39 3 33 9 -20 24 -15 24 7 0 11 -7 20 -15 20 -18 0 -16
-30 -18 298 -2 225 -5 274 -16 282 -20 12 3 40 33 40 l21 0 -22 18 c-22 17
-22 18 -19 347 1 219 -1 336 -8 348 -9 14 -7 21 7 32 10 7 14 16 9 19 -6 3 -9
151 -9 360 0 269 -2 358 -12 370 -10 12 -9 17 8 25 11 6 27 11 35 11 22 0 20
17 -3 25 -17 5 -20 21 -26 178 -7 175 -2 457 9 475 3 5 -3 17 -14 27 -25 23
-10 45 31 45 16 0 29 5 29 11 0 5 -4 7 -10 4 -14 -9 -50 13 -50 31 0 21 -28
74 -53 102 -18 19 -19 26 -9 43 7 11 10 29 7 39 -6 18 20 124 35 145 12 18 3
105 -14 124 -9 10 -16 28 -16 40 0 12 -17 40 -38 62 -35 38 -42 41 -97 44
-102 5 -145 -8 -186 -55 l-36 -42 -43 12 c-23 6 -58 27 -78 46 -19 19 -40 35
-46 35 -81 10 -165 5 -199 -12z m-103 -57 c0 -12 -1 -101 -2 -197 l-2 -175
-46 0 -46 0 4 145 c3 126 1 145 -12 145 -9 0 -21 -5 -27 -11 -6 -6 -21 -9 -34
-7 -58 8 -16 88 45 88 17 0 45 9 61 20 37 25 60 22 59 -8z m297 -4 c79 -59 77
-267 -4 -340 -25 -23 -40 -28 -81 -28 -46 0 -53 3 -88 42 l-38 42 0 108 c0 86
4 114 17 136 46 71 128 88 194 40z m445 -14 c23 -25 33 -46 37 -81 8 -71 -4
-191 -19 -204 -8 -6 -14 -17 -14 -23 0 -18 -59 -46 -99 -46 -51 0 -109 50
-121 105 -12 51 -12 139 -1 189 24 103 145 137 217 60z m-2422 -254 c24 -9 25
-12 20 -77 -3 -37 -7 -83 -9 -101 -3 -27 0 -35 20 -44 35 -16 38 -46 8 -74
-17 -16 -24 -30 -20 -44 7 -26 -30 -46 -68 -36 -23 6 -26 11 -21 34 11 49 -4
57 -74 42 -59 -12 -64 -12 -77 6 -18 24 -10 58 25 107 43 61 62 91 68 110 4 9
10 17 14 17 5 0 13 13 18 29 8 21 18 31 39 34 15 2 29 5 30 6 1 0 13 -3 27 -9z
m481 -35 l0 -40 -76 3 c-72 4 -76 3 -82 -19 -9 -33 -1 -39 56 -39 85 -1 125
-54 111 -148 -11 -73 -74 -113 -159 -99 -40 7 -92 43 -101 69 -15 48 61 61 97
16 21 -27 59 -20 79 14 13 25 13 30 -2 55 -18 30 -62 43 -81 24 -13 -13 -57
-14 -76 -2 -13 8 -13 22 0 103 l15 93 94 6 c133 8 125 10 125 -36z m1665 15
c23 -23 25 -40 8 -62 -23 -28 -48 -29 -73 -3 -26 25 -25 50 3 73 22 17 39 15
62 -8z m-2032 -109 c3 -8 -1 -12 -9 -9 -7 2 -15 10 -17 17 -3 8 1 12 9 9 7 -2
15 -10 17 -17z m70 -204 c4 -36 -38 -65 -73 -49 -34 15 -35 65 -3 79 36 16 72
1 76 -30z m-2051 -234 c33 -18 63 -64 63 -95 0 -11 -10 -33 -21 -50 l-21 -29
21 -23 c14 -15 21 -35 21 -64 0 -34 -6 -48 -35 -77 -33 -33 -40 -35 -98 -35
-58 0 -65 3 -104 38 -44 39 -53 62 -30 80 20 17 85 3 93 -20 3 -11 16 -24 30
-30 34 -16 56 5 52 51 -3 35 -5 36 -45 39 -31 2 -44 8 -48 22 -9 29 12 62 36
55 33 -11 59 4 59 34 0 53 -45 68 -83 28 -38 -41 -107 -46 -107 -7 0 21 38 67
71 85 35 19 112 18 146 -2z m424 0 c2 -10 3 -97 1 -194 l-3 -177 -37 -5 c-20
-2 -41 -1 -46 4 -5 4 -8 67 -7 138 1 72 0 135 -4 140 -3 6 -17 3 -34 -6 -37
-22 -61 -11 -61 26 0 25 5 32 28 37 15 4 32 10 37 14 6 5 27 11 48 15 20 4 40
11 43 16 9 15 31 10 35 -8z m-261 -98 c23 -24 23 -26 7 -43 -24 -23 -51 -5
-55 37 -4 39 15 41 48 6z m94 -131 c3 -30 4 -60 1 -65 -13 -21 -25 -7 -25 30
0 22 -5 43 -10 46 -11 7 5 45 19 45 5 0 11 -25 15 -56z m-64 -76 c14 -18 15
-26 6 -43 -24 -43 -58 -47 -82 -10 -36 55 34 104 76 53z m-1625 -881 l0 -112
28 -3 c24 -3 28 -7 25 -30 -2 -18 -10 -28 -28 -32 -21 -5 -25 -12 -28 -48 l-3
-43 -42 3 c-42 3 -42 3 -42 43 l0 40 -75 0 -75 0 -3 36 c-2 23 2 40 12 49 9 7
16 18 16 25 0 8 3 15 8 17 8 3 52 64 52 72 0 3 14 28 31 55 26 44 35 50 67 53
20 2 41 0 47 -5 6 -4 10 -58 10 -120z m-459 89 c29 -29 34 -41 34 -79 0 -27
-6 -49 -15 -57 -8 -7 -15 -17 -15 -22 0 -5 -11 -19 -23 -31 -13 -12 -39 -39
-57 -61 l-34 -38 65 2 c91 3 89 4 89 -35 l0 -35 -128 0 c-127 0 -152 6 -152
36 0 7 41 54 90 105 82 83 90 95 90 130 0 54 -30 70 -65 35 -14 -14 -25 -29
-25 -35 0 -15 -57 -23 -79 -11 -25 13 -26 23 -6 44 8 8 15 19 15 25 0 5 15 21
33 35 26 21 43 26 91 26 53 0 61 -3 92 -34z m164 -191 c0 -16 -35 -21 -44 -6
-8 12 4 21 26 21 10 0 18 -7 18 -15z m14 -98 l20 -27 -25 -26 c-45 -45 -99
-11 -83 53 11 40 57 41 88 0z"/>
<path d="M7207 4502 c-14 -15 -17 -40 -17 -118 0 -102 7 -124 40 -124 37 0 50
32 50 127 0 81 -2 92 -23 111 -28 27 -30 27 -50 4z"/>
<path d="M7630 4493 c-20 -25 -21 -35 -15 -113 5 -64 12 -90 26 -105 15 -15
23 -17 36 -9 26 16 35 62 28 148 -8 109 -32 134 -75 79z"/>
<path d="M5225 4120 c-38 -54 -24 -86 26 -60 14 8 19 21 19 55 0 25 -4 45 -9
45 -4 0 -21 -18 -36 -40z"/>
<path d="M1929 2508 c-19 -16 -49 -63 -49 -78 0 -15 60 -12 66 4 3 8 4 30 2
50 -3 32 -5 35 -19 24z"/>
<path d="M923 882 c-193 -1 -313 -6 -313 -12 0 -17 38 -19 330 -22 256 -3 289
-5 320 -22 27 -15 55 -19 130 -18 59 0 106 -5 125 -14 29 -13 159 -12 325 2
30 3 109 7 176 9 98 3 128 7 161 25 39 20 50 21 494 18 422 -3 456 -4 489 -22
26 -14 61 -20 135 -22 55 -2 117 -6 137 -9 20 -3 39 -1 42 3 7 12 199 6 224
-7 25 -13 67 -14 90 -2 10 5 55 11 102 14 91 6 117 11 167 33 25 11 117 14
480 14 434 0 449 -1 487 -21 31 -16 57 -20 127 -20 74 0 92 -4 114 -21 24 -18
28 -19 42 -6 12 12 23 13 54 5 32 -8 47 -6 79 8 37 17 41 17 65 1 19 -13 30
-14 45 -6 11 6 93 12 183 14 144 3 166 6 197 25 34 21 43 21 500 21 256 0 470
-4 476 -8 6 -4 11 -18 10 -32 -1 -20 3 -24 19 -21 11 1 52 2 90 1 80 -3 90 -2
163 6 34 4 58 2 65 -5 16 -16 37 -14 58 5 16 15 20 15 41 0 26 -19 89 -21 106
-4 9 9 20 8 50 -1 29 -10 52 -10 97 -2 32 6 87 11 121 11 70 0 94 6 94 25 0 7
7 16 16 19 9 3 133 6 277 6 240 0 304 6 284 26 -7 7 -6742 13 -7474 6z"/>
<path d="M5429 729 c-8 -5 -32 -6 -55 -3 -88 13 -165 -64 -163 -163 1 -44 6
-55 41 -92 39 -40 41 -41 111 -43 134 -5 179 0 209 22 15 11 34 20 41 20 8 0
21 7 28 16 8 9 31 27 51 40 35 22 38 28 38 68 0 26 -6 51 -15 60 -8 8 -15 18
-16 23 0 4 -12 17 -27 29 -22 17 -46 22 -128 26 -56 3 -107 2 -115 -3z m-57
-64 c35 -32 28 -59 -13 -50 -35 8 -40 -12 -5 -21 28 -7 49 -48 40 -77 -14 -45
-78 -74 -90 -42 -4 8 -15 15 -25 15 -14 0 -19 7 -19 29 0 40 15 47 46 22 28
-22 44 -20 44 5 0 8 -10 14 -25 14 -14 0 -25 4 -25 9 0 5 -9 13 -20 16 -30 10
-26 54 8 82 35 29 51 29 84 -2z m292 3 c10 -10 22 -18 27 -18 15 0 10 -62 -8
-82 -9 -10 -30 -18 -50 -18 -28 0 -33 -4 -33 -23 0 -46 -20 -58 -97 -60 -39
-1 -75 1 -79 5 -13 14 -8 199 6 208 7 4 59 7 115 6 82 -1 105 -4 119 -18z"/>
<path d="M5511 641 c-7 -5 -22 -6 -32 -4 -15 4 -19 0 -19 -22 0 -20 4 -25 18
-21 22 7 47 -8 38 -23 -4 -6 -18 -11 -31 -11 -13 0 -26 -4 -29 -9 -9 -13 16
-26 49 -26 29 0 30 2 32 49 3 56 -6 79 -26 67z"/>
<path d="M5596 621 c-17 -18 -17 -19 4 -26 30 -10 49 10 29 30 -14 14 -17 14
-33 -4z"/>
<path d="M7250 720 c-36 -3 -70 -8 -77 -13 -6 -4 -14 -3 -18 2 -9 16 -255 11
-287 -6 -15 -7 -39 -30 -53 -50 -57 -85 -14 -182 103 -228 66 -27 212 2 251
49 15 17 41 22 41 7 0 -5 14 -16 30 -25 17 -8 30 -11 30 -6 0 5 -6 10 -12 12
-8 3 -15 33 -18 84 -5 76 -6 79 -30 79 -21 0 -26 5 -28 32 l-3 32 80 0 c79 0
81 -1 81 -25 0 -31 10 -30 40 1 29 31 47 31 77 3 23 -21 23 -21 37 -2 11 15
28 19 80 21 36 0 69 -3 72 -8 10 -17 -8 -50 -33 -60 -24 -9 -25 -13 -20 -60 7
-56 -5 -99 -28 -99 -19 0 -29 40 -22 98 6 51 -5 82 -28 82 -12 0 -15 -14 -15
-61 0 -55 -3 -63 -32 -90 -41 -37 -57 -37 -96 2 -35 34 -44 57 -40 104 3 24
-1 30 -17 30 -18 0 -20 -8 -23 -75 l-2 -75 52 -23 c62 -26 98 -28 138 -7 26
13 34 14 58 2 15 -8 38 -11 52 -8 29 7 137 5 223 -5 62 -6 107 0 107 16 0 6
-17 10 -38 10 -21 0 -47 7 -59 15 -14 10 -24 12 -28 5 -9 -15 -35 -12 -35 4 0
16 -37 46 -57 46 -7 0 -19 -13 -28 -30 -9 -17 -24 -30 -34 -30 -16 0 -18 5
-11 33 26 112 79 208 99 178 9 -14 26 -68 36 -113 3 -16 10 -28 16 -28 7 0 10
26 7 73 l-3 72 33 3 c35 4 34 8 36 -98 1 -53 2 -55 29 -55 20 0 33 -8 42 -25
l14 -25 1 27 c0 15 -11 39 -25 54 -17 18 -25 39 -25 63 0 20 -4 41 -8 46 -16
23 -60 37 -92 30 -23 -5 -35 -3 -41 6 -6 10 -56 13 -221 14 -117 0 -242 -2
-278 -5z m-293 -52 c11 -13 26 -33 32 -45 13 -26 15 -80 2 -88 -5 -3 -7 -21
-4 -40 4 -27 2 -36 -11 -41 -10 -4 -22 -2 -29 5 -6 6 -21 11 -34 11 -13 0 -23
5 -23 10 0 6 -6 10 -14 10 -17 0 -46 54 -46 85 0 46 54 114 91 115 8 0 25 -10
36 -22z m152 1 c27 -20 29 -25 29 -94 0 -69 -2 -74 -29 -94 -15 -12 -34 -21
-41 -21 -22 1 -58 37 -58 59 0 19 4 21 40 15 46 -7 54 7 14 25 -21 9 -24 14
-14 26 7 8 19 15 26 15 8 0 14 5 14 11 0 8 -13 9 -40 5 -33 -5 -40 -3 -40 11
0 21 38 63 57 63 8 0 27 -9 42 -21z"/>
<path d="M6900 610 c-6 -12 -10 -33 -8 -48 2 -21 8 -27 28 -27 21 0 26 5 28
33 5 53 -27 81 -48 42z"/>
<path d="M1556 695 c-20 -16 -26 -30 -26 -58 0 -26 -4 -37 -15 -37 -17 0 -55
-56 -55 -82 0 -10 5 -18 10 -18 6 0 10 13 10 28 0 41 9 45 47 21 19 -12 37
-18 40 -15 4 4 7 39 7 79 1 65 3 72 21 72 18 0 20 -8 23 -88 3 -85 2 -90 -23
-113 -30 -28 -47 -30 -65 -9 -14 17 -50 20 -50 5 0 -6 8 -14 18 -17 9 -4 20
-11 24 -17 4 -5 24 -9 45 -8 60 2 81 2 192 -2 145 -5 195 11 89 29 -21 3 -38
9 -38 13 0 4 -7 15 -14 25 -13 17 -15 17 -41 -8 -35 -31 -52 -31 -90 -1 -29
23 -30 27 -30 108 0 77 1 83 22 86 28 4 37 -24 28 -90 -5 -38 -4 -53 6 -59 33
-21 39 -10 39 66 0 87 3 90 76 78 l49 -9 0 -69 c0 -50 4 -70 13 -69 6 1 23 2
37 3 31 1 34 35 5 51 -15 8 -20 21 -20 49 0 64 -28 75 -182 76 -113 0 -130 -2
-152 -20z"/>
<path d="M3396 699 c-19 -15 -26 -30 -26 -54 0 -19 -6 -38 -14 -42 -31 -18
-50 -93 -23 -93 18 0 37 21 37 41 0 9 6 22 14 28 7 6 16 26 20 43 14 68 61 82
72 21 4 -21 10 -42 14 -48 5 -5 10 -20 12 -33 1 -12 8 -23 13 -22 6 0 10 32
10 73 0 65 2 72 20 72 18 0 20 -8 23 -78 3 -74 4 -78 25 -75 20 3 22 9 25 81
3 69 5 77 23 77 11 0 24 -11 31 -25 l11 -24 29 24 c32 27 72 33 85 12 4 -8 16
-16 26 -20 14 -5 17 -19 17 -81 l0 -74 -40 -21 c-22 -12 -43 -21 -46 -21 -2 0
-25 19 -49 41 -34 31 -45 37 -45 24 0 -20 -44 -65 -64 -65 -7 0 -21 9 -31 20
-23 26 -32 25 -41 -2 -7 -22 -8 -21 -39 15 -37 43 -50 46 -66 15 -7 -12 -21
-30 -33 -39 -19 -16 -20 -18 -3 -24 9 -4 23 -2 31 4 10 8 21 9 42 1 25 -10
126 -14 214 -10 14 1 40 -2 57 -6 43 -8 75 0 112 32 62 52 60 151 -6 221 l-32
34 -98 -5 c-54 -2 -105 -5 -113 -6 -8 0 -50 1 -92 4 -66 4 -80 2 -102 -15z"/>
<path d="M7396 611 c-32 -35 -3 -94 38 -78 29 11 16 97 -14 97 -4 0 -15 -9
-24 -19z"/>
<path d="M3733 613 c-16 -6 -17 -55 -1 -71 13 -13 48 -17 48 -5 0 3 -7 15 -16
24 -16 17 -15 19 10 29 15 5 24 14 21 20 -6 10 -41 12 -62 3z"/>
<path d="M7705 590 c-4 -6 -3 -16 3 -22 6 -6 12 -6 17 2 4 6 3 16 -3 22 -6 6
-12 6 -17 -2z"/>
</g>
</svg>
